<svg width="27" height="28" viewBox="0 0 27 28" fill="none" xmlns="http://www.w3.org/2000/svg">
<path fill-rule="evenodd" clip-rule="evenodd" d="M11.7143 0.395386C5.2438 0.395386 0 5.64527 0 12.1194C0 18.5936 5.2438 23.8435 11.7143 23.8435C14.5887 23.8435 17.2226 22.8063 19.2603 21.0872L25.2926 27.1249C25.6829 27.5156 26.3161 27.5159 26.7068 27.1256C27.0975 26.7352 27.0978 26.102 26.7074 25.7113L20.674 19.6725C22.3922 17.6328 23.4286 14.9964 23.4286 12.1194C23.4286 5.64527 18.1847 0.395386 11.7143 0.395386ZM2 12.1194C2 6.74812 6.35009 2.39539 11.7143 2.39539C17.0785 2.39539 21.4286 6.74812 21.4286 12.1194C21.4286 14.8006 20.3459 17.2266 18.5922 18.9865L18.5922 18.9865C16.8324 20.7526 14.4014 21.8435 11.7143 21.8435C6.35009 21.8435 2 17.4907 2 12.1194Z" fill="#1E1E1E"/>
</svg>
